<svg xmlns="http://www.w3.org/2000/svg" xmlns:xlink="http://www.w3.org/1999/xlink" viewBox="0 0 70 70"><defs><style>.cls-1{fill:url(#linear-gradient);}.cls-2{fill:url(#linear-gradient-2);}.cls-3{fill:url(#linear-gradient-4);}.cls-4{fill:url(#linear-gradient-5);}.cls-5{fill:#fff;}.cls-6{fill:url(#linear-gradient-6);}.cls-7{fill:url(#linear-gradient-7);}.cls-8{fill:url(#linear-gradient-8);}.cls-9{fill:url(#linear-gradient-9);}.cls-10{fill:url(#linear-gradient-10);}.cls-11{fill:url(#linear-gradient-11);}.cls-12{fill:url(#linear-gradient-12);}.cls-13{fill:url(#linear-gradient-13);}.cls-14{fill:url(#linear-gradient-14);}.cls-15{fill:url(#linear-gradient-15);}.cls-16{fill:url(#linear-gradient-16);}.cls-17{fill:url(#linear-gradient-17);}.cls-18{fill:url(#linear-gradient-18);}.cls-19{fill:url(#linear-gradient-19);}</style><linearGradient id="linear-gradient" x1="2.3" y1="84.64" x2="76.97" y2="-28.7" gradientUnits="userSpaceOnUse"><stop offset="0" stop-color="#fec106"/><stop offset="1" stop-color="#ff6c02"/></linearGradient><linearGradient id="linear-gradient-2" x1="32.27" y1="22.99" x2="7.77" y2="99.49" gradientUnits="userSpaceOnUse"><stop offset="0" stop-color="#159abd"/><stop offset="1" stop-color="#a9d9e5"/></linearGradient><linearGradient id="linear-gradient-4" x1="48.37" y1="-6.97" x2="13.65" y2="103.27" xlink:href="#linear-gradient"/><linearGradient id="linear-gradient-5" x1="26.22" y1="20.06" x2="15.56" y2="106.06" xlink:href="#linear-gradient"/><linearGradient id="linear-gradient-6" x1="-49.37" y1="119.76" x2="56.44" y2="13.46" gradientTransform="translate(0 70) rotate(-90)" gradientUnits="userSpaceOnUse"><stop offset="0" stop-color="#fec106"/><stop offset="1" stop-color="#ff6c02" stop-opacity="0"/></linearGradient><linearGradient id="linear-gradient-7" x1="-28.41" y1="75.37" x2="35.09" y2="34.94" gradientTransform="matrix(1, 0, 0, 1, 0, 0)" xlink:href="#linear-gradient-6"/><linearGradient id="linear-gradient-8" x1="-28.05" y1="75.31" x2="42.17" y2="7.55" gradientTransform="translate(20.54 49.46) rotate(-90)" xlink:href="#linear-gradient-6"/><linearGradient id="linear-gradient-9" x1="-24.64" y1="72.02" x2="40" y2="9.63" gradientTransform="matrix(1, 0, 0, 1, 0, 0)" xlink:href="#linear-gradient-6"/><linearGradient id="linear-gradient-10" x1="9.79" y1="17.63" x2="13.87" y2="12.22" xlink:href="#linear-gradient"/><linearGradient id="linear-gradient-11" x1="16.94" y1="16.82" x2="19.94" y2="12.32" xlink:href="#linear-gradient"/><linearGradient id="linear-gradient-12" x1="21.5" y1="17.75" x2="25.58" y2="12.58" xlink:href="#linear-gradient"/><linearGradient id="linear-gradient-13" x1="25.92" y1="65.64" x2="43.76" y2="42.39" gradientTransform="matrix(1, 0, 0, 1, 0, 0)" xlink:href="#linear-gradient-6"/><linearGradient id="linear-gradient-14" x1="26.51" y1="48.84" x2="38.76" y2="24.09" gradientTransform="matrix(1, 0, 0, 1, 0, 0)" xlink:href="#linear-gradient-6"/><linearGradient id="linear-gradient-15" x1="29.57" y1="47.9" x2="34.07" y2="31.33" gradientTransform="matrix(1, 0, 0, 1, 0, 0)" xlink:href="#linear-gradient-6"/><linearGradient id="linear-gradient-16" x1="19.88" y1="38.7" x2="26.6" y2="24.32" gradientTransform="matrix(1, 0, 0, 1, 0, 0)" xlink:href="#linear-gradient-6"/><linearGradient id="linear-gradient-17" x1="18.97" y1="42.25" x2="24.01" y2="29.38" gradientTransform="matrix(1, 0, 0, 1, 0, 0)" xlink:href="#linear-gradient-6"/><linearGradient id="linear-gradient-18" x1="43.92" y1="38.7" x2="50.64" y2="24.32" gradientTransform="matrix(1, 0, 0, 1, 0, 0)" xlink:href="#linear-gradient-6"/><linearGradient id="linear-gradient-19" x1="952.45" y1="42.25" x2="957.49" y2="29.38" gradientTransform="matrix(-1, 0, 0, 1, 1003.48, 0)" xlink:href="#linear-gradient-6"/></defs><title>website live </title><g id="bg"><rect class="cls-1" width="70" height="70" rx="12"/><path class="cls-2" d="M32.5,61.25C23.26,58.94,8.08,50.79,0,41.3V58A12,12,0,0,0,12,70H43.61C41.15,66.18,37.56,62.52,32.5,61.25Z"/><path class="cls-2" d="M32.5,61.25C23.26,58.94,8.08,50.79,0,41.3V58A12,12,0,0,0,12,70H43.61C41.15,66.18,37.56,62.52,32.5,61.25Z"/><path class="cls-3" d="M51.41,53.75c-6.09-8.49,2.22-17.89-4.5-26-8-9.72-25.28-2.61-29.75-11-2.82-5.29,2-11.87,3.67-16.75H12.16a12,12,0,0,0-12,12V58a12,12,0,0,0,12,12h46a12,12,0,0,0,11.68-9.28C62.57,60.44,55.37,59.26,51.41,53.75Z"/><path class="cls-4" d="M32.5,61.25C23.26,58.94,8.08,50.79,0,41.3V58A12,12,0,0,0,12,70H43.61C41.15,66.18,37.56,62.52,32.5,61.25Z"/><rect class="cls-5" x="5.33" y="9.9" width="59.33" height="50.21" rx="1"/><rect class="cls-6" x="10.9" y="6.33" width="48.21" height="57.33" rx="1" transform="translate(70 0) rotate(90)"/><path class="cls-7" d="M8.4,58.29a1,1,0,0,1-1-1V10.9H6.33V58.1a1,1,0,0,0,1,1H63.67v-.81Z"/><rect class="cls-5" x="5.33" y="9.9" width="59.33" height="9.13" rx="1"/><rect class="cls-8" x="31.44" y="-14.21" width="7.13" height="57.33" rx="1" transform="translate(49.46 -20.54) rotate(90)"/><polygon class="cls-9" points="7.42 17.28 7.42 10.9 6.33 10.9 6.33 18.03 63.67 18.03 63.67 17.28 7.42 17.28"/><circle class="cls-10" cx="12.18" cy="14.46" r="1.93"/><circle class="cls-11" cx="18.51" cy="14.46" r="1.93"/><circle class="cls-12" cx="24.1" cy="14.46" r="1.93"/></g><g id="Layer_2" data-name="Layer 2"><path class="cls-5" d="M35,42.78h0a9.63,9.63,0,0,1,9.63,9.63v6.42a0,0,0,0,1,0,0H25.37a0,0,0,0,1,0,0V52.41A9.63,9.63,0,0,1,35,42.78Z"/><path class="cls-13" d="M25.91,58.29V52.41a9.09,9.09,0,0,1,18.18,0v5.88Z"/><circle class="cls-5" cx="35" cy="31.69" r="9.63"/><path class="cls-14" d="M35,40.78a9.09,9.09,0,1,1,9.09-9.09A9.1,9.1,0,0,1,35,40.78Z"/><path class="cls-15" d="M35.53,40.41A9.08,9.08,0,0,1,30.15,24,9.08,9.08,0,1,0,40.38,39,9,9,0,0,1,35.53,40.41Z"/><path class="cls-5" d="M46.58,31.69h-1a10.59,10.59,0,1,0-21.17,0h-1a11.59,11.59,0,1,1,23.17,0Z"/><rect class="cls-5" x="21.49" y="27.63" width="2.98" height="8.88" rx="1.49"/><path class="cls-16" d="M23,36a1,1,0,0,1-1-1V29.12a1,1,0,1,1,2,0V35a1,1,0,0,1-1,1Z"/><path class="cls-17" d="M23.21,35.77h0a1,1,0,0,1-1-1V28.89a1,1,0,0,1,.19-.56.94.94,0,0,0-.42.79V35a1,1,0,0,0,1,1h0a1,1,0,0,0,.79-.42A1,1,0,0,1,23.21,35.77Z"/><rect class="cls-5" x="45.53" y="27.63" width="2.98" height="8.88" rx="1.49"/><path class="cls-18" d="M47,36a1,1,0,0,1-1-1V29.12a1,1,0,0,1,2,0V35a1,1,0,0,1-1,1Z"/><path class="cls-19" d="M46.79,35.77h0a1,1,0,0,0,1-1V28.89a1,1,0,0,0-.19-.56.94.94,0,0,1,.42.79V35a1,1,0,0,1-1,1h0a1,1,0,0,1-.79-.42A1,1,0,0,0,46.79,35.77Z"/></g></svg>