<svg id="bg" xmlns="http://www.w3.org/2000/svg" xmlns:xlink="http://www.w3.org/1999/xlink" viewBox="0 0 70 70"><defs><style>.cls-1{fill:url(#linear-gradient);}.cls-2{fill:url(#linear-gradient-2);}.cls-3{fill:url(#linear-gradient-4);}.cls-4{fill:url(#linear-gradient-5);}.cls-5{fill:url(#linear-gradient-6);}.cls-6{fill:#fff;}</style><linearGradient id="linear-gradient" x1="2.64" y1="84.46" x2="77.31" y2="-28.87" gradientUnits="userSpaceOnUse"><stop offset="0" stop-color="#75ee6b"/><stop offset="1" stop-color="#70bc5a"/></linearGradient><linearGradient id="linear-gradient-2" x1="32.61" y1="22.82" x2="8.11" y2="99.32" gradientUnits="userSpaceOnUse"><stop offset="0" stop-color="#159abd"/><stop offset="1" stop-color="#a9d9e5"/></linearGradient><linearGradient id="linear-gradient-4" x1="66.84" y1="-6.43" x2="9.84" y2="69.24" xlink:href="#linear-gradient"/><linearGradient id="linear-gradient-5" x1="57.83" y1="10.7" x2="-0.5" y2="73.7" xlink:href="#linear-gradient"/><linearGradient id="linear-gradient-6" x1="39.58" y1="35.19" x2="-3.09" y2="84.86" xlink:href="#linear-gradient"/></defs><title>FEEDEX</title><rect class="cls-1" x="0.34" y="-0.17" width="70" height="70" rx="12"/><path class="cls-2" d="M32.84,61.08C23.6,58.77,8.42,50.62.34,41.13v16.7a12,12,0,0,0,12,12H44C41.49,66,37.9,62.34,32.84,61.08Z"/><path class="cls-2" d="M32.84,61.08C23.6,58.77,8.42,50.62.34,41.13v16.7a12,12,0,0,0,12,12H44C41.49,66,37.9,62.34,32.84,61.08Z"/><path class="cls-3" d="M56.84,26.08c-1.11-6.52,5.65-10.92,3.25-15-1.09-1.86-4-3.54-21.75-2C17.47,10.88,12.83,14,5.09,10.58A21.88,21.88,0,0,1,.91,8.18a11.91,11.91,0,0,0-.57,3.65v46a12,12,0,0,0,12,12h46a12,12,0,0,0,12-12v-21C63.92,34.31,57.8,31.76,56.84,26.08Z"/><path class="cls-4" d="M51.75,53.58c-6.09-8.49,2.22-17.89-4.5-26C39.2,17.85,22,25,17.5,16.58c-2.82-5.29,2-11.87,3.67-16.75H12.5a12,12,0,0,0-12,12v46a12,12,0,0,0,12,12h46a12,12,0,0,0,11.68-9.29C62.91,60.27,55.71,59.09,51.75,53.58Z"/><path class="cls-5" d="M32.84,61.08C23.6,58.77,8.42,50.62.34,41.13v16.7a12,12,0,0,0,12,12H44C41.49,66,37.9,62.34,32.84,61.08Z"/><path class="cls-6" d="M9.54,45.78h2.38v.71h-.81v4.23h-.75V46.49H9.54Z"/><path class="cls-6" d="M15.9,45.78v4.94h-.74V47.33l-.7,3.39h-.52l-.7-3.39v3.39H12.5V45.78h1.06l.65,3.16.62-3.16Z"/><path class="cls-6" d="M43.4,39.25V36h5.23V32.47H43.4V30.13h5.23V26.45H35.56v6.76a4.76,4.76,0,0,0-3.34-1.42,5.33,5.33,0,0,0-5,4.3,5.92,5.92,0,0,0-10.91-1.17V32.45h-4.9V30.19h5.39V26.36H7.11V42.94h4.47V36.07h4.3a5.92,5.92,0,0,0,11.29,3.56H23.58s0,1.15-2,1.15-2.18-2.3-2.18-2.3h7.72c.33,2.91,2.49,5.16,5.11,5.16a4.76,4.76,0,0,0,3.34-1.42v.72H48.63V39.25ZM19.58,36a2.13,2.13,0,0,1,4.2,0Zm13.75,4.34c-1.23,0-2.23-1.28-2.23-2.87s1-2.86,2.23-2.86,2.23,1.28,2.23,2.86S34.56,40.38,33.33,40.38Z"/><polygon class="cls-6" points="62.9 32.47 57.92 32.47 55.74 34.92 53.56 32.47 48.63 32.47 53.27 37.7 48.63 42.94 53.56 42.94 55.74 40.49 57.92 42.94 62.9 42.94 58.23 37.7 62.9 32.47"/></svg>