<svg id="bg" xmlns="http://www.w3.org/2000/svg" xmlns:xlink="http://www.w3.org/1999/xlink" viewBox="0 0 70 70"><defs><style>.cls-1{fill:url(#linear-gradient);}.cls-2{fill:url(#linear-gradient-2);}.cls-3{fill:url(#linear-gradient-4);}.cls-4{fill:url(#linear-gradient-5);}.cls-5{fill:url(#linear-gradient-6);}.cls-6{fill:#fff;}.cls-7{fill:url(#linear-gradient-7);}.cls-8{fill:url(#linear-gradient-8);}</style><linearGradient id="linear-gradient" x1="2.41" y1="84.81" x2="77.07" y2="-28.52" gradientUnits="userSpaceOnUse"><stop offset="0" stop-color="#75ee6b"/><stop offset="1" stop-color="#70bc5a"/></linearGradient><linearGradient id="linear-gradient-2" x1="32.37" y1="23.17" x2="7.87" y2="99.67" gradientUnits="userSpaceOnUse"><stop offset="0" stop-color="#159abd"/><stop offset="1" stop-color="#a9d9e5"/></linearGradient><linearGradient id="linear-gradient-4" x1="66.61" y1="-6.09" x2="9.61" y2="69.58" xlink:href="#linear-gradient"/><linearGradient id="linear-gradient-5" x1="57.6" y1="11.05" x2="-0.73" y2="74.05" xlink:href="#linear-gradient"/><linearGradient id="linear-gradient-6" x1="39.34" y1="35.54" x2="-3.32" y2="85.2" xlink:href="#linear-gradient"/><linearGradient id="linear-gradient-7" x1="-13.6" y1="76.09" x2="51.58" y2="19.29" gradientUnits="userSpaceOnUse"><stop offset="0" stop-color="#75ee6b"/><stop offset="1" stop-color="#70bc5a" stop-opacity="0"/></linearGradient><linearGradient id="linear-gradient-8" x1="45.8" y1="37.53" x2="50.24" y2="32.1" xlink:href="#linear-gradient-7"/></defs><title>account auto</title><rect class="cls-1" x="0.11" y="0.17" width="70" height="70" rx="12"/><path class="cls-2" d="M32.61,61.42C23.36,59.11,8.19,51,.11,41.48V58.17a12,12,0,0,0,12,12H43.72C41.26,66.36,37.67,62.69,32.61,61.42Z"/><path class="cls-2" d="M32.61,61.42C23.36,59.11,8.19,51,.11,41.48V58.17a12,12,0,0,0,12,12H43.72C41.26,66.36,37.67,62.69,32.61,61.42Z"/><path class="cls-3" d="M56.61,26.42c-1.11-6.52,5.64-10.91,3.25-15-1.09-1.86-4-3.53-21.75-2C17.24,11.23,12.6,14.3,4.86,10.92A22.1,22.1,0,0,1,.68,8.53a11.85,11.85,0,0,0-.57,3.64v46a12,12,0,0,0,12,12h46a12,12,0,0,0,12-12v-21C63.69,34.65,57.57,32.1,56.61,26.42Z"/><path class="cls-4" d="M51.52,53.92c-6.09-8.48,2.22-17.88-4.5-26-8.05-9.72-25.28-2.61-29.75-11-2.82-5.28,2-11.87,3.66-16.75H12.27a12,12,0,0,0-12,12v46a12,12,0,0,0,12,12h46A12,12,0,0,0,70,60.89C62.68,60.61,55.48,59.44,51.52,53.92Z"/><path class="cls-5" d="M32.61,61.42C23.36,59.11,8.19,51,.11,41.48V58.17a12,12,0,0,0,12,12H43.72C41.26,66.36,37.67,62.69,32.61,61.42Z"/><path class="cls-6" d="M62.08,22.2v7.2H49.41a4.34,4.34,0,0,0-2.51.8h0a4.34,4.34,0,0,0,2.52,7.88H62.08v7.19a3.85,3.85,0,0,1-.88,2.46h0a3.85,3.85,0,0,1-3,1.42H11.85A3.89,3.89,0,0,1,8,45.28V22.2A3.87,3.87,0,0,1,9.65,19a3.81,3.81,0,0,1,2.2-.69H58.2A3.88,3.88,0,0,1,62.08,22.2Z"/><path class="cls-7" d="M45.07,33.74a4.34,4.34,0,0,0,4.34,4.35H62.08v7.19a3.85,3.85,0,0,1-.88,2.46h0A3.93,3.93,0,0,1,59,48.4H12.68a3.89,3.89,0,0,1-3.89-3.89V21.43A3.84,3.84,0,0,1,9.65,19a3.81,3.81,0,0,1,2.2-.69H58.2a3.88,3.88,0,0,1,3.88,3.88v6.43H50.24A4.31,4.31,0,0,0,46.9,30.2h0A4.32,4.32,0,0,0,45.07,33.74Z"/><path class="cls-6" d="M51.41,33.74a2.46,2.46,0,0,1-.3,1.18v0a2.48,2.48,0,0,1-4.65-1.2A2.44,2.44,0,0,1,47,32.18l0,0a2.48,2.48,0,0,1,4.38,1.59Z"/><path class="cls-8" d="M51.41,33.74a2.46,2.46,0,0,1-.3,1.18v0a2.48,2.48,0,0,1-4.39-1.58,2.43,2.43,0,0,1,.3-1.18l0,0a2.48,2.48,0,0,1,4.38,1.59Z"/></svg>